<?xml version="1.0" encoding="UTF-8"?>
<svg version="1.1" xmlns="http://www.w3.org/2000/svg" width="2048" height="2048">
<path d="M0 0 C675.84 0 1351.68 0 2048 0 C2048 675.84 2048 1351.68 2048 2048 C1372.16 2048 696.32 2048 0 2048 C0 1372.16 0 696.32 0 0 Z " fill="#FEFEFE" transform="translate(0,0)"/>
<path d="M0 0 C30.16584922 -0.22890429 60.33165336 -0.40549529 90.49817696 -0.51065329 C94.07235377 -0.523158 97.64652887 -0.53610145 101.22070312 -0.54931641 C101.93215522 -0.55193951 102.64360731 -0.55456261 103.37661856 -0.55726521 C114.84522596 -0.6005921 126.313324 -0.67933215 137.78163081 -0.77152796 C149.57904433 -0.86556734 161.37619403 -0.92069719 173.17396688 -0.94088495 C179.78822783 -0.95328801 186.40154871 -0.98398904 193.01545715 -1.05730057 C199.26041576 -1.12595165 205.50376905 -1.14596242 211.74906921 -1.13107681 C214.02245863 -1.13379383 216.29591037 -1.15322217 218.56896973 -1.19205475 C234.76581715 -1.45482831 246.8206703 1.87626324 261.41751385 8.83526349 C266.85306954 11.28677331 272.32625759 13.07693596 278.25 13.8125 C282.16942769 14.58432576 284.35662221 15.51122738 286.75 18.91015625 C287.74570663 20.57485327 288.72029391 22.25217761 289.6875 23.93359375 C293.08897094 29.75586961 296.02108918 34.34987908 301.25 38.75 C316.29947258 51.61083737 325.91504294 71.67723622 335 89 C341.14563146 88.03115928 346.9852323 86.46708618 352.875 84.5 C353.51703369 84.28641846 354.15906738 84.07283691 354.82055664 83.8527832 C357.33278311 82.99601995 359.73086882 82.14860943 362.05859375 80.86328125 C367.72732823 78.34257638 375.94615273 79.41588183 381.8125 81 C387.01497122 83.00462194 390.36860189 86.90760035 394 91 C398.13624274 95.47161378 402.7757603 98.78034694 407.76953125 102.23046875 C408.50558594 102.81441406 409.24164062 103.39835937 410 104 C410 104.66 410 105.32 410 106 C410.59683594 106.25652344 411.19367188 106.51304688 411.80859375 106.77734375 C414.21952969 108.1224827 415.40289574 109.37182237 417.0625 111.5625 C417.54847656 112.18253906 418.03445313 112.80257813 418.53515625 113.44140625 C420.63408957 117.10754311 421.75928486 120.9752215 423 125 C427.3690353 139.77229314 427.3690353 139.77229314 437.44921875 151.03125 C442.60502936 155.01061991 446.62588308 160.25415287 450.87109375 165.1640625 C452.56773288 167.12143237 454.27631918 169.06640958 456 171 C456.54011719 171.60714844 457.08023437 172.21429687 457.63671875 172.83984375 C462.84174295 178.38458981 468.90789725 181.89010453 475.62890625 185.35546875 C484.45998838 189.94454636 492.07174171 195.8029373 499.6328125 202.2421875 C501.92991128 203.94795392 503.27353925 204.42566777 506 205 C505.96970703 203.84854492 505.93941406 202.69708984 505.90820312 201.51074219 C505.08583404 169.66923186 504.87071765 137.85124233 505 106 C504.01 106 503.02 106 502 106 C501.97311849 104.35425434 501.95365877 102.70838587 501.9375 101.0625 C501.92589844 100.14597656 501.91429687 99.22945312 501.90234375 98.28515625 C502 96 502 96 503 95 C503.23653523 92.47403741 503.42173692 89.96892793 503.5625 87.4375 C503.60568359 86.72658203 503.64886719 86.01566406 503.69335938 85.28320312 C503.79971777 83.52238088 503.90038846 81.7612168 504 80 C505.32 80 506.64 80 508 80 C508 84.62 508 89.24 508 94 C514.05449677 94.32254811 518.23994705 93.62664848 523.6875 91 C524.67411621 90.53122437 524.67411621 90.53122437 525.68066406 90.05297852 C531.09814067 87.298572 533.72795328 84.52264822 536 79 C536.61875 77.9275 537.2375 76.855 537.875 75.75 C539.16658506 72.59279208 538.83450852 72.13727133 538 69 C537.92008896 67.19418245 537.89230177 65.38568191 537.90234375 63.578125 C537.90556641 62.55332031 537.90878906 61.52851562 537.91210938 60.47265625 C537.92048828 59.40917969 537.92886719 58.34570312 537.9375 57.25 C537.94201172 56.17105469 537.94652344 55.09210938 537.95117188 53.98046875 C537.96294273 51.32025617 537.97938601 48.66015635 538 46 C535.36 46 532.72 46 530 46 C526.75099398 41.02495953 525.50059192 38.11774896 526 32 C525.21625 31.855625 524.4325 31.71125 523.625 31.5625 C521 31 521 31 519 30 C519.1875 28.1875 519.1875 28.1875 520 26 C521.66279327 24.9935725 523.32983484 23.99414593 525 23 C526.01187895 21.34051852 527.0126546 19.67419438 528 18 C531.49739612 15.27980302 535.76108041 15.47627248 540 16 C544.72446527 17.72624693 547.2526712 19.80915945 550 24 C550.390625 27.33203125 550.390625 27.33203125 550.25 30.8125 C550.21390625 31.97394531 550.1778125 33.13539062 550.140625 34.33203125 C550.07101562 35.65267578 550.07101562 35.65267578 550 37 C552.97 37 555.94 37 559 37 C558.85820313 36.3709375 558.71640625 35.741875 558.5703125 35.09375 C557.39091818 28.22429534 557.39091818 28.22429534 559.1640625 24.66015625 C560.68471391 22.64885131 562.24499159 20.8093301 564 19 C564.46148438 18.43925781 564.92296875 17.87851563 565.3984375 17.30078125 C568.17944839 15.04205777 571.12889123 15.6011765 574.56640625 15.7109375 C577.72195094 16.0857534 579.52551044 17.02040835 582 19 C582.78375 19.515625 583.5675 20.03125 584.375 20.5625 C587.62566018 23.58097017 589.77480129 27.00811762 592.23046875 30.68359375 C593.97924759 33.24948571 593.97924759 33.24948571 597.25 35.0625 C600.74997474 37.5283913 600.99452578 39.36315625 602.078125 43.3671875 C603.20971806 46.59894057 604.87103515 49.2259221 606.6875 52.125 C609.51695936 56.78563347 610.43247646 59.48592514 610 65 C610.93578995 67.35981813 611.93347808 69.69631264 613 72 C613.6875 74.5 613.6875 74.5 614 77 C614.165 78.093125 614.33 79.18625 614.5 80.3125 C613.68508792 86.32247656 609.86206418 89.6618835 605.29296875 93.39453125 C600.64717996 96.47359033 596.33531736 96.43553611 591 96 C591.51845927 105.8896106 593.21791387 114.86314556 596.625 124.1875 C596.93115234 125.07139404 597.23730469 125.95528809 597.55273438 126.8659668 C599.72859746 132.49574325 602.11419374 135.35771752 607.12255859 138.69604492 C614.70582379 143.9629135 620.65870579 155.87161936 625 164 C625 164.99 625 165.98 625 167 C625.87140625 166.40832031 626.7428125 165.81664062 627.640625 165.20703125 C633.30187418 161.43153112 638.59881233 157.95454976 645.0625 155.6875 C653.57081374 152.42730502 659.78937053 145.4833828 665.9296875 138.9453125 C673.26285324 131.61214676 685.03072506 127.41937163 695 125 C691.56556325 130.15357063 688.12876313 135.30554856 684.68815613 140.45500183 C669.36699761 163.34581708 669.36699761 163.34581708 654.28466797 186.39404297 C648.8737731 194.76641839 643.32698237 203.0474516 637.78369141 211.33251953 C634.76741264 215.84331365 631.7591334 220.35943755 628.75 224.875 C627.68232914 226.47658748 626.61462098 228.0781501 625.546875 229.6796875 C624.71736328 230.92443848 624.71736328 230.92443848 623.87109375 232.19433594 C622.4894459 234.26608661 621.10655231 236.3369789 619.72265625 238.40722656 C613.59908676 247.57274367 607.53754694 256.77764148 601.5 266 C593.0965694 278.83624799 584.60579307 291.61110796 576.07415771 304.36242676 C573.69561613 307.91827813 571.31861211 311.47515584 568.94189453 315.03222656 C567.73504621 316.83747187 566.52736978 318.64216385 565.31884766 320.44628906 C558.35955518 330.83706986 551.4871165 341.26796982 544.86099243 351.87518311 C541.99487636 356.46028661 539.02512114 360.92977076 535.85546875 365.3125 C534.25154041 367.63566358 532.73695587 369.98357303 531.23828125 372.375 C530.74593994 373.15601074 530.25359863 373.93702148 529.74633789 374.74169922 C528.76128766 376.31064364 527.78494979 377.8850974 526.81811523 379.46533203 C526.36766846 380.18060059 525.91722168 380.89586914 525.453125 381.6328125 C525.05254883 382.28137207 524.65197266 382.92993164 524.23925781 383.59814453 C523.83030273 384.06075684 523.42134766 384.52336914 523 385 C520 385 520 385 518.5625 383.671875 C517.7890625 382.72054687 517.7890625 382.72054687 517 381.75 C516.38511719 381.02039062 515.77023437 380.29078125 515.13671875 379.5390625 C514.43160156 378.70117188 513.72648437 377.86328125 513 377 C503.54368943 366.1289658 493.31847272 357.21063158 481.546875 348.82421875 C478.52813885 346.66202584 475.58735134 344.40796174 472.65625 342.12890625 C470.88141894 340.80879998 470.88141894 340.80879998 468 340 C468.06960938 341.22074219 468.13921875 342.44148438 468.2109375 343.69921875 C468.64997879 354.7768288 467.43508102 362.14812012 462 372 C461.01341164 374.258701 460.05368169 376.52937996 459.125 378.8125 C458.51011719 380.30716797 458.51011719 380.30716797 457.8828125 381.83203125 C457.59148437 382.54746094 457.30015625 383.26289062 457 384 C456.34 383.67 455.68 383.34 455 383 C454.32007776 380.64550944 453.73539803 378.32243443 453.1875 375.9375 C450.45723131 365.14794351 445.74762899 359.39385625 437.71875 351.90625 C431.75439097 345.53055587 429.15811155 339.3356385 427.3125 330.875 C426.91482959 329.14275285 426.51513862 327.41096813 426.11328125 325.6796875 C425.92846191 324.86983398 425.74364258 324.05998047 425.55322266 323.22558594 C424.9800209 320.7866582 424.9800209 320.7866582 423.85546875 317.6328125 C423 315 423 315 423 311 C421.86884766 310.65775391 421.86884766 310.65775391 420.71484375 310.30859375 C396.52976381 301.78913867 373.16211365 289.62985213 351.04199219 276.76269531 C345.53540587 273.57188045 340.01235216 270.41216266 334.46343994 267.29550171 C333.16228668 266.56123936 331.86417097 265.82156615 330.5692749 265.07632446 C328.75142688 264.03075155 326.92417324 263.00382483 325.09375 261.98046875 C323.51110352 261.08171021 323.51110352 261.08171021 321.89648438 260.16479492 C318.64747265 258.85823432 317.26506907 258.85256548 314 260 C311.69598972 261.71331256 311.69598972 261.71331256 309.5 263.9375 C304.23597141 268.86091497 298.63552784 273.21313868 292.89697266 277.55761719 C281.31383204 286.36497816 269.93987102 295.42329614 258.67480469 304.63232422 C249.66295603 311.99156273 240.46103021 319.10716102 231.26904297 326.23876953 C227.5103996 329.15622738 223.75523321 332.07815483 220 335 C216.7438735 331.96598556 214.37010877 328.76483004 211.9453125 325.0390625 C211.56748123 324.46109924 211.18964996 323.88313599 210.80036926 323.28765869 C209.57041177 321.40320521 208.34762524 319.51421715 207.125 317.625 C206.26537182 316.30464416 205.40542381 314.9844965 204.54516602 313.66455078 C199.06163415 305.23836729 193.65620511 296.7641427 188.28857422 288.26367188 C182.86212988 279.70604164 177.23081283 271.28726529 171.56616211 262.88623047 C167.71814539 257.15998903 163.9824261 251.39332281 160.359375 245.5234375 C154.04133331 235.31477294 147.25109158 225.42502184 140.5 215.5 C132.83717355 204.23460402 125.24523689 192.96111 118.08837891 181.36621094 C115.46442554 177.13671958 112.72502849 172.99765391 109.9375 168.875 C103.33743067 159.03813301 96.81854655 149.14920063 90.3125 139.25 C89.24162324 137.62084606 88.17074102 135.99169571 87.09985352 134.36254883 C85.44455629 131.8443164 83.78927413 129.3260741 82.1341095 126.80775452 C78.06352398 120.61524813 73.98803362 114.42598787 69.91015625 108.23828125 C49.70871111 77.58361387 49.70871111 77.58361387 41.01733398 64.21459961 C34.0338792 53.48976115 26.98101767 42.81043838 19.9375 32.125 C18.97170013 30.65962296 18.97170013 30.65962296 17.98638916 29.16464233 C16.12539266 26.34130013 14.26397205 23.51823815 12.40234375 20.6953125 C11.56876091 19.43091591 11.56876091 19.43091591 10.71833801 18.14097595 C9.91984688 16.93061424 9.91984688 16.93061424 9.10522461 15.69580078 C8.59498749 14.92061096 8.08475037 14.14542114 7.55905151 13.34674072 C6.47345738 11.71266518 5.37558316 10.08670936 4.26834106 8.46722412 C3.71774017 7.65932434 3.16713928 6.85142456 2.59985352 6.01904297 C2.10074966 5.29441864 1.60164581 4.56979431 1.0874176 3.82321167 C0 2 0 2 0 0 Z " fill="#010101" transform="translate(631,1015)"/>
<path d="M0 0 C1.50626953 0.41572266 1.50626953 0.41572266 3.04296875 0.83984375 C20.38337307 6.26966732 33.68130196 20.34467245 42 36 C49.96448202 52.80600522 51.07119833 73.95869883 45.32421875 91.68359375 C36.60921396 113.50966769 22.74082926 127.81040696 1.48828125 137.62109375 C-17.17412831 144.99828364 -40.26905757 144.23846384 -58.51318359 136.33374023 C-66.1863899 132.83046344 -72.79038336 128.77529562 -79 123 C-79.63035156 122.44828125 -80.26070312 121.8965625 -80.91015625 121.328125 C-93.74687616 109.47884508 -100.45978981 91.93517557 -101.3203125 74.77734375 C-101.9548407 53.77556074 -97.1352412 36.14133438 -83 20 C-82.43023438 19.33613281 -81.86046875 18.67226563 -81.2734375 17.98828125 C-71.9246238 7.86371492 -60.07917582 1.78691465 -47 -2 C-46.20851563 -2.24492188 -45.41703125 -2.48984375 -44.6015625 -2.7421875 C-29.95177082 -6.49459028 -14.2308228 -4.24116941 0 0 Z " fill="#030303" transform="translate(861,664)"/>
<path d="M0 0 C0.66 0 1.32 0 2 0 C3.22580316 2.13737759 4.43362135 4.28091995 5.625 6.4375 C6.17740356 7.43728882 6.17740356 7.43728882 6.7409668 8.45727539 C9.05243627 12.79310337 10.73977877 17.03049316 12.14990234 21.73193359 C14.92353536 30.96443199 18.35928279 35.20634368 27 40 C28.64742187 40.76376953 28.64742187 40.76376953 30.328125 41.54296875 C33 44 33 44 33.44140625 46.15161133 C33.52246421 48.95531005 33.41501629 51.69999449 33.25 54.5 C33.18420332 56.56354844 33.12708801 58.62738978 33.078125 60.69140625 C33.05298828 61.73699707 33.02785156 62.78258789 33.00195312 63.85986328 C32.99890768 68.75617627 33.45875732 73.57518868 34 78.4375 C34.09571289 79.30117187 34.19142578 80.16484375 34.29003906 81.0546875 C34.51714321 83.03757537 34.75698565 85.01899909 35 87 C39.89851964 84.88115031 44.79388272 82.75513973 49.6875 80.625 C50.7742099 80.15246292 50.7742099 80.15246292 51.88287354 79.67037964 C62.02592924 75.25405958 72.08462254 70.71349807 81.97924805 65.75830078 C83.95961357 64.78299179 85.97649103 63.88231894 88 63 C88.66 63.33 89.32 63.66 90 64 C88.4777195 66.23267807 86.9554305 68.46535034 85.43310547 70.69799805 C84.07391534 72.6915545 82.71487169 74.68521083 81.35595703 76.67895508 C78.13509376 81.40409199 74.91335685 86.12859708 71.68359375 90.84765625 C54.12716347 116.51676722 36.76199433 142.31959199 19.5 168.1875 C19.09302887 168.7966626 18.68605774 169.4058252 18.26675415 170.03344727 C14.08296427 176.29845066 9.94874427 182.58329056 6 189 C1.49390959 187.05792351 -0.21223935 183.91448079 -2.625 179.8125 C-3.52158565 178.3348123 -4.42006484 176.85827206 -5.3203125 175.3828125 C-5.77180664 174.6393457 -6.22330078 173.89587891 -6.68847656 173.12988281 C-8.55426475 170.09988725 -10.513239 167.1391143 -12.5 164.1875 C-12.90516846 163.58357422 -13.31033691 162.97964844 -13.7277832 162.35742188 C-14.63610282 161.0044691 -15.54507986 159.65195754 -16.45458984 158.29980469 C-36.38905202 128.63430173 -56.07469571 98.79448867 -75.55029297 68.82592773 C-79.17505266 63.24992541 -82.84536855 57.70891651 -86.58203125 52.20703125 C-87.87957127 50.18744417 -88.97757507 48.16953582 -90 46 C-86.38351475 47.30842102 -83.54439126 48.88969953 -80.45703125 51.171875 C-74.74828292 55.2563548 -68.77240791 58.75995971 -62.6875 62.25 C-60.58714059 63.46337033 -58.48687668 64.67690597 -56.38671875 65.890625 C-55.47108154 66.41688477 -54.55544434 66.94314453 -53.61206055 67.48535156 C-51.83499971 68.51581099 -50.08137101 69.58752974 -48.35083008 70.69433594 C-46.01107382 72.24277136 -46.01107382 72.24277136 -43 72 C-42.77860352 71.3201001 -42.55720703 70.6402002 -42.32910156 69.93969727 C-41.30764104 66.81233802 -40.27887299 63.68742807 -39.25 60.5625 C-38.90195312 59.49322266 -38.55390625 58.42394531 -38.1953125 57.32226562 C-37.16469703 54.20179101 -36.09003095 51.10015539 -35 48 C-34.70480469 47.09048584 -34.40960937 46.18097168 -34.10546875 45.24389648 C-33.25172407 42.91388496 -32.4796321 40.99224879 -31 39 C-27.46875 37.96484375 -27.46875 37.96484375 -23.5 37.9375 C-19.56471254 38.06073056 -19.56471254 38.06073056 -16 37 C-14.01088102 34.58210508 -13.02903575 31.93462288 -12 29 C-11.62053223 27.92745972 -11.62053223 27.92745972 -11.23339844 26.83325195 C-10.49439157 24.62791821 -9.80619014 22.41131497 -9.125 20.1875 C-6.81285619 12.91497499 -4.04140965 6.50638291 0 0 Z " fill="#020202" transform="translate(1013,1411)"/>
<path d="M0 0 C11.818125 -0.04125 23.63625 -0.0825 35.8125 -0.125 C39.52346924 -0.14320801 43.23443848 -0.16141602 47.05786133 -0.18017578 C51.64196777 -0.18920898 51.64196777 -0.18920898 53.79814148 -0.19088745 C55.28183701 -0.19392856 56.76552806 -0.20089914 58.24919128 -0.21115112 C75.41691083 -0.32369367 89.31034976 1.44731937 102.4375 13.6875 C112.34128218 24.26763804 115.70482398 36.6217085 115.3125 50.76171875 C114.58845366 63.92427792 109.69906409 76.35754433 99.96484375 85.41015625 C88.18393417 94.94262186 74.67155323 98.19211403 59.78515625 98.09765625 C58.64572571 98.09614563 58.64572571 98.09614563 57.48327637 98.09460449 C54.6763353 98.0894171 51.86941595 98.07545623 49.0625 98.0625 C39.6265625 98.0315625 39.6265625 98.0315625 30 98 C30 111.86 30 125.72 30 140 C20.1 140 10.2 140 0 140 C0 93.8 0 47.6 0 0 Z " fill="#030303" transform="translate(937,663)"/>
<path d="M0 0 C26 0 26 0 32.4375 6.1875 C33.87084961 8.2722168 33.87084961 8.2722168 34.77734375 10.07421875 C36.92148713 14.00594917 39.52749043 17.17048018 42.5 20.5 C46.70161362 25.38657883 50.70885364 30.40137968 54.6640625 35.48828125 C58.36159155 40.22736778 62.16521382 44.87154094 66 49.5 C72.13002165 56.90537855 78.08804777 64.41879068 84 72 C87.63 76.62 91.26 81.24 95 86 C95.33 57.62 95.66 29.24 96 0 C105.9 0 115.8 0 126 0 C126 46.2 126 92.4 126 140 C100 140 100 140 93.75 134.125 C92.34667969 132.09033203 92.34667969 132.09033203 91.421875 130.2578125 C88.77517261 125.42656615 85.43828726 121.28790265 82 117 C80.80610489 115.469386 79.61466836 113.9368509 78.42578125 112.40234375 C71.47389516 103.46531444 64.49420886 94.56566147 57.296875 85.82421875 C54.741745 82.68245175 52.24451608 79.50274093 49.75 76.3125 C43.58589048 68.47336072 37.2885089 60.73970326 31 53 C30.67 81.71 30.34 110.42 30 140 C20.1 140 10.2 140 0 140 C0 93.8 0 47.6 0 0 Z " fill="#020302" transform="translate(1142,663)"/>
<path d="M0 0 C26 0 26 0 32.125 5.375 C33.47360811 7.54902738 34.76913507 9.75720924 36 12 C37.27765564 13.65253663 38.58929871 15.27949552 39.9375 16.875 C45.89660695 24.36576497 51.79975933 31.90141944 57.69140625 39.4453125 C63.12255766 46.39072913 68.63827768 53.2588904 74.21630859 60.08691406 C78.50964286 65.35816733 82.67315895 70.71632258 86.78125 76.1328125 C89.11379244 79.14704868 91.56003444 82.07204132 94 85 C94.33 56.95 94.66 28.9 95 0 C104.9 0 114.8 0 125 0 C125 46.2 125 92.4 125 140 C99 140 99 140 93 134.3125 C91.71044922 132.3815918 91.71044922 132.3815918 90.9296875 130.69921875 C89.047912 126.9735363 86.72958422 123.87216257 84.125 120.625 C83.29273592 119.54545241 82.4620298 118.46470212 81.6328125 117.3828125 C78.29471175 113.07289166 74.87401214 108.82946826 71.45703125 104.58203125 C68.28959039 100.6369067 65.18783876 96.65187981 62.125 92.625 C57.75272254 86.87804434 53.17990185 81.30884904 48.52392578 75.78955078 C42.35510454 68.40201568 36.80727357 60.74303142 31 53 C30.67 81.71 30.34 110.42 30 140 C20.1 140 10.2 140 0 140 C0 93.8 0 47.6 0 0 Z " fill="#030303" transform="translate(1302,663)"/>
<path d="M0 0 C9.9 0 19.8 0 30 0 C30 18.15 30 36.3 30 55 C50.79 55 71.58 55 93 55 C93 36.85 93 18.7 93 0 C102.9 0 112.8 0 123 0 C123 46.2 123 92.4 123 140 C112.77 140 102.54 140 92 140 C92 121.19 92 102.38 92 83 C71.87 83 51.74 83 31 83 C31 101.81 31 120.62 31 140 C20.77 140 10.54 140 0 140 C0 93.8 0 47.6 0 0 Z " fill="#050505" transform="translate(609,663)"/>
<path d="M0 0 C9.66361255 6.94099475 15.15634286 16.9309651 17.24609375 28.61328125 C18.7080051 42.72879316 16.90253172 55.94999516 8.08203125 67.46875 C1.25517227 75.4431023 -8.16994446 81.43138338 -18.75390625 82.61328125 C-33.35659709 83.40756987 -45.58802899 81.68642937 -56.94921875 71.6796875 C-67.52350875 60.72343646 -70.08817793 48.55905617 -69.8984375 34.03515625 C-69.59319808 22.13330044 -65.20725411 12.88978298 -56.94140625 4.23828125 C-40.41100548 -11.35317299 -18.92044218 -12.19990111 0 0 Z " fill="#FDFDFC" transform="translate(860.75390625,695.38671875)"/>
<path d="M0 0 C9.9 0 19.8 0 30 0 C30 46.2 30 92.4 30 140 C20.1 140 10.2 140 0 140 C0 93.8 0 47.6 0 0 Z " fill="#030303" transform="translate(1078,663)"/>
<path d="M0 0 C4.21264487 1.50451603 6.00333217 4.08345926 8 8 C7.21811982 12.57958393 4.18227476 14.81772524 1 18 C-2.3627033 22.49802113 -3.66608984 26.33823636 -3 32 C-2.34 32.66 -1.68 33.32 -1 34 C-1.26822707 37.12931583 -2.16079623 39.33137561 -3.53686523 42.16723633 C-5.2509146 46.13264588 -5.35280055 49.86785918 -5.22265625 54.13671875 C-5.21366806 54.89741165 -5.20467987 55.65810455 -5.19541931 56.44184875 C-5.16562866 58.85755055 -5.11595799 61.27221477 -5.0625 63.6875 C-4.50707425 91.2494563 -4.50707425 91.2494563 -9.1875 97.5625 C-13.94718831 101.68756321 -18.81369708 103.24557281 -25 104 C-25.25030977 106.41619823 -25.25030977 106.41619823 -25 109 C-24.01 109.66 -23.02 110.32 -22 111 C-23.55759343 111.53532823 -25.12138045 112.05265378 -26.6875 112.5625 C-27.55761719 112.85253906 -28.42773438 113.14257812 -29.32421875 113.44140625 C-32 114 -32 114 -37 113 C-37.33 80.66 -37.66 48.32 -38 15 C-32.77855981 12.76223992 -30.12257547 11.65973046 -24.875 11.0625 C-12.05803831 9.56002732 -12.05803831 9.56002732 -1.6875 2.75 C-1.130625 1.8425 -0.57375 0.935 0 0 Z " fill="#FBFBFB" transform="translate(1177,1106)"/>
<path d="M0 0 C3.61133872 1.20377957 4.25795377 2.3634379 6.5 5.375 C8.81788053 8.45687468 10.90801698 10.92675653 13.93359375 13.3359375 C20.27417628 18.43149017 20.27417628 18.43149017 22 22 C22.34754166 25.45545147 22.03886592 28.85319525 21.8125 32.3125 C21.4604392 38.87753128 22.03394238 43.44900117 26.43629456 48.58476257 C31.49188182 54.01699385 37.06070342 58.91525868 42.76928711 63.6484375 C46.15635239 67.21899816 46.9457043 70.53401616 47.125 75.375 C47.08375 76.24125 47.0425 77.1075 47 78 C42.7855172 75.93107208 38.67157713 73.81783949 34.625 71.4375 C31.46746123 69.64479789 28.5767182 68.52142812 25.0625 67.625 C20.95479095 66.53428844 18.19918278 64.87303743 14.8125 62.3125 C11.69182119 60.01716503 10.10982899 59.02379628 6.25 58.1875 C2.34094226 59.16476444 0.81140891 60.66978452 -1.73828125 63.6875 C-2.15464844 64.120625 -2.57101562 64.55375 -3 65 C-3.66 65 -4.32 65 -5 65 C-6.07810349 63.34850074 -7.08672554 61.65144899 -8.0625 59.9375 C-11.67400782 54.1398852 -15.43565963 50.83391783 -21 47 C-22.93553335 45.60639503 -24.86243937 44.20153654 -26.78710938 42.79296875 C-28.11116824 41.82514173 -29.43915417 40.86265852 -30.77148438 39.90625 C-34.12471466 37.47961619 -37.16812821 35.04586714 -40 32 C-31.10086206 24.59768839 -22.18118994 17.2543225 -12.94921875 10.26953125 C-9.21120386 7.39299264 -5.60725035 4.36666766 -2.0234375 1.30078125 C-1.35570312 0.87152344 -0.68796875 0.44226562 0 0 Z " fill="#030404" transform="translate(946,1286)"/>
<path d="M0 0 C3.57316142 3.40449821 6.43708105 6.89002218 9.25 10.9375 C12.7105321 15.63188683 15.86368377 18.68575239 20.82421875 21.67578125 C27.41279524 25.68570482 32.25457795 31.25360446 37.0625 37.1875 C37.56442871 37.79400391 38.06635742 38.40050781 38.58349609 39.02539062 C42.04909556 43.43504619 42.04909556 43.43504619 41.81420898 46.13793945 C41.54552002 46.75241943 41.27683105 47.36689941 41 48 C40.01 48.33 39.02 48.66 38 49 C37.68627441 49.62890137 37.37254883 50.25780273 37.04931641 50.90576172 C35.12128478 54.75375039 31.066452 56.18220621 27.375 58.125 C26.52196289 58.57584961 25.66892578 59.02669922 24.79003906 59.49121094 C17.99371573 62.89063633 12.45003017 64.00457086 4.86328125 64.5078125 C-0.79556304 65.22875727 -5.4493635 67.37992701 -10.59765625 69.7578125 C-14.28843257 71.10530604 -17.10274848 71.22837397 -21 71 C-21.43380663 60.42797185 -20.38880428 51.02059134 -17.35546875 40.8359375 C-16.04280905 36.39744785 -16.10024989 32.7707746 -16.375 28.125 C-16.49620279 19.99575568 -13.34749014 16.69977412 -8 11 C-6.47209136 8.97913435 -4.97129887 6.93744574 -3.5 4.875 C-2.8296875 3.94429687 -2.159375 3.01359375 -1.46875 2.0546875 C-0.9840625 1.37664062 -0.499375 0.69859375 0 0 Z " fill="#FCFCFB" transform="translate(1203,1142)"/>
<path d="M0 0 C6.27 -0.0825 12.54 -0.165 19 -0.25 C20.96324219 -0.28641602 22.92648437 -0.32283203 24.94921875 -0.36035156 C26.52863476 -0.3720486 28.10806295 -0.38223801 29.6875 -0.390625 C30.88922852 -0.4213208 30.88922852 -0.4213208 32.11523438 -0.45263672 C38.77641897 -0.45670835 43.91035772 1.38752255 49.0234375 5.7109375 C53.62386193 11.37504388 55.43944676 16.29387129 55.25390625 23.62890625 C54.59048348 29.82425428 52.58438771 35.66341703 48 40 C41.24789936 44.10694781 35.59696202 45.15080446 27.734375 45.09765625 C27.03070801 45.09664917 26.32704102 45.09564209 25.60205078 45.09460449 C22.98468384 45.08939005 20.36734021 45.07542881 17.75 45.0625 C11.8925 45.041875 6.035 45.02125 0 45 C0 30.15 0 15.3 0 0 Z " fill="#FDFDFC" transform="translate(967,690)"/>
<path d="M0 0 C5.67337456 3.29055724 8.57316047 8.33382094 11.4375 14.0625 C12.27855266 23.00168827 12.03633976 30.74094032 6.4375 38.0625 C1.25069115 43.08199244 -3.99976438 46.07667956 -11.25 46.4375 C-18.69280175 46.24921484 -24.99648746 43.8650945 -30.5 38.8125 C-36.10079098 32.5644478 -37.1623992 26.22679448 -36.90234375 17.95703125 C-36.01994916 10.44146357 -32.21322359 6.25353739 -26.5625 1.5078125 C-19.12660241 -3.86578537 -8.2797141 -3.65466832 0 0 Z " fill="#09090A" transform="translate(1310.5625,896.9375)"/>
<path d="M0 0 C2.05252364 1.21394394 3.66703079 2.47168607 5.3828125 4.125 C5.95515625 4.66769531 6.5275 5.21039062 7.1171875 5.76953125 C12.77896808 11.74136172 13.93471504 18.28753409 13.7578125 26.34765625 C12.81109903 33.35925287 8.68004041 38.66308574 3.1875 42.90625 C-3.15038969 47.1863833 -9.13785599 48.10430815 -16.6171875 47.125 C-19.56717517 46.15165382 -22.0249082 44.82154892 -24.6171875 43.125 C-25.5040625 42.58875 -26.3909375 42.0525 -27.3046875 41.5 C-32.81562345 35.84011983 -34.94712915 29.85698237 -35.2421875 22 C-34.94546874 14.6060894 -33.03002788 10.52260449 -27.8671875 5.3828125 C-20.1199443 -1.59638503 -10.06400861 -3.36468348 0 0 Z " fill="#090909" transform="translate(718.6171875,895.875)"/>
<path d="M0 0 C4.06107263 3.12218244 6.85241441 7.08373507 9.12890625 11.63671875 C9.89528299 21.91370524 9.48375388 29.12911734 3.00390625 37.32421875 C-3.09998995 42.23387439 -9.36347854 45.58213033 -17.35546875 45.1171875 C-24.37289488 43.7769027 -30.34089538 40.2623815 -34.6875 34.5859375 C-38.61655197 28.11532056 -40.11815036 21.04063072 -38.40234375 13.60546875 C-36.27809234 7.03040485 -32.29132945 1.81221056 -26.37109375 -1.80078125 C-17.94191445 -5.51478746 -7.86212029 -4.52039536 0 0 Z " fill="#090909" transform="translate(1145.87109375,898.36328125)"/>
<path d="M0 0 C1.127641 1.127641 2.25034177 2.26044201 3.35546875 3.41015625 C5.01666794 5.07650374 5.01666794 5.07650374 7.11328125 6.62109375 C9.55132627 8.63475438 11.31907007 10.3079844 13 13 C13.08984375 16.27734375 13.08984375 16.27734375 12.75 19.875 C12.4808003 24.37448073 12.41058791 26.24455633 15.21875 29.84375 C18.3665104 32.47229219 21.54977604 34.79389428 25 37 C26.07507813 37.69609375 27.15015625 38.3921875 28.2578125 39.109375 C29.28648437 39.77453125 30.31515625 40.4396875 31.375 41.125 C36.52645187 44.46066596 39.77276152 47.82786945 43 53 C43.79154335 54.12508677 44.58319807 55.25009519 45.375 56.375 C47 59 47 59 47 61 C42.95516151 60.29424019 39.19129722 59.1546594 35.3125 57.8125 C33.60513672 57.23435547 33.60513672 57.23435547 31.86328125 56.64453125 C28.68351665 55.44992586 26.16602513 53.76190126 23.37109375 51.84375 C16.38247096 47.52636953 9.22131046 48.47350147 1.28125 48.85351562 C-2.01204789 48.88606566 -4.81137278 48.83661297 -8 48 C-10.03721169 45.9298202 -11.20822442 43.88677208 -12.56787109 41.32739258 C-15.00114525 37.37301096 -18.67626883 35.63193995 -22.6875 33.5 C-23.44611328 33.07203125 -24.20472656 32.6440625 -24.98632812 32.203125 C-27.97914918 30.53369613 -30.74034434 29.08655189 -34 28 C-32.84659645 24.53978936 -31.97695327 23.95986718 -29.1171875 21.83203125 C-28.3034668 21.21924316 -27.48974609 20.60645508 -26.65136719 19.97509766 C-25.77641602 19.32331543 -24.90146484 18.6715332 -24 18 C-22.20956044 16.63070497 -20.42052308 15.25957475 -18.6328125 13.88671875 C-16.79723718 12.48650425 -14.96129663 11.08676841 -13.125 9.6875 C-12.18914063 8.97271484 -11.25328125 8.25792969 -10.2890625 7.52148438 C-9.391875 6.83763672 -8.4946875 6.15378906 -7.5703125 5.44921875 C-6.76352051 4.83393311 -5.95672852 4.21864746 -5.12548828 3.5847168 C-3.45403658 2.33851958 -1.73473174 1.15648783 0 0 Z " fill="#040505" transform="translate(895,1327)"/>
<path d="M0 0 C4.7955281 1.78656929 8.20635482 4.65797925 12 8 C12.45890625 7.59007812 12.9178125 7.18015625 13.390625 6.7578125 C14.00421875 6.21898437 14.6178125 5.68015625 15.25 5.125 C15.85328125 4.59132813 16.4565625 4.05765625 17.078125 3.5078125 C21.20877331 0.26710062 24.45253856 -0.45321849 29.625 -0.30859375 C35.2016412 0.41600272 39.12101867 2.66786628 42.58959961 7.04882812 C45.54060797 11.26885869 45.65614962 14.74774523 45.48828125 19.77734375 C45.48120651 20.58869278 45.47413177 21.40004181 45.46684265 22.23597717 C45.43905771 24.80412623 45.37635566 27.3700204 45.3125 29.9375 C45.28739629 31.68811935 45.26458676 33.43877319 45.24414062 35.18945312 C45.1892841 39.46049207 45.10312803 43.729865 45 48 C42.36 48 39.72 48 37 48 C36.98541748 47.05680908 36.97083496 46.11361816 36.95581055 45.1418457 C36.89460394 41.62841339 36.82042492 38.11574554 36.73754883 34.6027832 C36.70438084 33.08498379 36.67632368 31.56706344 36.65356445 30.04907227 C36.61986722 27.86161981 36.56754796 25.67526736 36.51171875 23.48828125 C36.48553467 22.17384033 36.45935059 20.85939941 36.43237305 19.50512695 C35.9808809 15.84500682 35.18593277 13.92957621 33 11 C29.57234748 8.42926061 26.16028704 8.56962548 22 9 C18.00048293 11.11295242 15.5790392 12.75268112 14 17 C13.76969093 19.38350485 13.64480346 21.77799271 13.5859375 24.171875 C13.56657135 24.8542926 13.5472052 25.53671021 13.5272522 26.23980713 C13.46768902 28.40974608 13.42116554 30.57973877 13.375 32.75 C13.33679869 34.22528297 13.2977457 35.70054415 13.2578125 37.17578125 C13.16200765 40.78365418 13.07789084 44.39169083 13 48 C10.03 48 7.06 48 4 48 C3.98598145 46.48647949 3.98598145 46.48647949 3.97167969 44.94238281 C3.9317523 41.19226224 3.86598719 37.44295971 3.79248047 33.69335938 C3.76428653 32.07172163 3.74306406 30.44994687 3.72900391 28.828125 C3.70755128 26.49407895 3.66089425 24.16167739 3.609375 21.828125 C3.60814636 21.10506165 3.60691772 20.38199829 3.60565186 19.63702393 C3.50551383 16.18169961 3.24850536 14.3188058 1.09619141 11.55761719 C-2.37429959 8.97879905 -5.75111929 8.68335898 -10 9 C-14.10090332 11.01317072 -16.39831446 12.73787232 -18 17 C-18.23030907 19.38350485 -18.35519654 21.77799271 -18.4140625 24.171875 C-18.43342865 24.8542926 -18.4527948 25.53671021 -18.4727478 26.23980713 C-18.53231098 28.40974608 -18.57883446 30.57973877 -18.625 32.75 C-18.66320131 34.22528297 -18.7022543 35.70054415 -18.7421875 37.17578125 C-18.83799235 40.78365418 -18.92210916 44.39169083 -19 48 C-21.97 48 -24.94 48 -28 48 C-28 32.49 -28 16.98 -28 1 C-25.03 1 -22.06 1 -19 1 C-18.67 2.98 -18.34 4.96 -18 7 C-17.51789062 6.57847656 -17.03578125 6.15695312 -16.5390625 5.72265625 C-15.90742187 5.17480469 -15.27578125 4.62695312 -14.625 4.0625 C-13.68527344 3.24458984 -13.68527344 3.24458984 -12.7265625 2.41015625 C-8.82466718 -0.77668585 -4.84394814 -0.45079044 0 0 Z " fill="#09090A" transform="translate(773,894)"/>
<path d="M0 0 C4.58914433 2.73648977 7.53381529 5.90613337 9.234375 11.0078125 C9.31932228 13.66675357 9.35032296 16.29866627 9.33203125 18.95703125 C9.3306163 19.72964798 9.32920135 20.50226471 9.32774353 21.29829407 C9.32214966 23.76400639 9.30959833 26.22962765 9.296875 28.6953125 C9.29185921 30.36783723 9.28729644 32.04036338 9.28320312 33.71289062 C9.27218224 37.81123296 9.25492184 41.90950729 9.234375 46.0078125 C6.264375 46.0078125 3.294375 46.0078125 0.234375 46.0078125 C-0.260625 43.5328125 -0.260625 43.5328125 -0.765625 41.0078125 C-1.879375 41.9359375 -1.879375 41.9359375 -3.015625 42.8828125 C-8.28185641 46.95217314 -12.2033441 47.71844867 -18.765625 47.0078125 C-23.98692972 45.35439934 -27.22003749 43.17909192 -30.765625 39.0078125 C-32.49998691 33.80472678 -32.53544412 29.67575394 -30.265625 24.7578125 C-26.63280944 20.76171539 -22.6728762 18.37543475 -17.24023438 17.68847656 C-14.57091375 17.61614531 -11.93385643 17.65697817 -9.265625 17.7578125 C-7.88890625 17.78488281 -7.88890625 17.78488281 -6.484375 17.8125 C-4.24366408 17.85918148 -2.00522701 17.92462728 0.234375 18.0078125 C-0.87982886 13.35700632 -0.87982886 13.35700632 -2.96484375 9.09375 C-5.79464432 7.3872759 -8.31146888 7.6119393 -11.578125 7.6328125 C-12.78082031 7.62507812 -13.98351562 7.61734375 -15.22265625 7.609375 C-19.03355713 8.03794379 -21.42002215 9.20376418 -24.765625 11.0078125 C-25.755625 11.0078125 -26.745625 11.0078125 -27.765625 11.0078125 C-28.425625 8.6978125 -29.085625 6.3878125 -29.765625 4.0078125 C-21.19669458 -1.88727477 -9.92136831 -3.55936095 0 0 Z " fill="#0C0C0C" transform="translate(972.765625,895.9921875)"/>
<path d="M0 0 C3.3 0 6.6 0 10 0 C11.75286853 3.95706904 13.50176101 7.9158837 15.25 11.875 C15.74113281 12.98359375 16.23226562 14.0921875 16.73828125 15.234375 C19.62361998 21.77447612 22.4036765 28.33962005 25 35 C27.70983674 32.29016326 28.68598114 29.09909583 30.0390625 25.5859375 C30.32478119 24.85629791 30.61049988 24.12665833 30.90487671 23.37490845 C31.81652468 21.04349874 32.72083474 18.7093205 33.625 16.375 C34.24170643 14.79408309 34.85888813 13.21335148 35.4765625 11.6328125 C36.98989867 7.75733724 38.49665988 3.87936318 40 0 C42.97 0 45.94 0 49 0 C48.31250188 5.13693884 46.15984589 9.61729477 44.10546875 14.32421875 C43.71684158 15.22566116 43.32821442 16.12710358 42.92781067 17.05586243 C41.68559603 19.93506891 40.43684494 22.81138125 39.1875 25.6875 C37.95008958 28.5462781 36.71407843 31.40565283 35.47932434 34.26557922 C34.71200556 36.04174519 33.94298532 37.8171775 33.17192078 39.59172058 C30.98132872 44.64995519 28.89473852 49.73509274 26.90718079 54.87678528 C25.16459731 58.9552214 22.98920929 61.31697454 19.375 63.8125 C14.31862584 65.59159461 8.7056855 66.19692189 3.6953125 63.98046875 C3.13585937 63.65691406 2.57640625 63.33335937 2 63 C2.33 60.69 2.66 58.38 3 56 C3.81984375 56.06960938 4.6396875 56.13921875 5.484375 56.2109375 C12.23696254 56.75332812 12.23696254 56.75332812 17.8125 53.5 C20.94692149 44.26170509 15.50167157 35.58431894 11.75 27.25 C11.16957484 25.94315117 10.59014075 24.63586169 10.01171875 23.328125 C9.15954301 21.40157713 8.30676651 19.47533849 7.4498291 17.55090332 C4.86694901 11.74178424 2.41172873 5.88219813 0 0 Z " fill="#0A0A0A" transform="translate(991,895)"/>
<path d="M0 0 C3.3 0 6.6 0 10 0 C15 11.66666667 20 23.33333333 25 35 C27.65508633 32.34491367 28.52998001 29.30004904 29.78515625 25.83984375 C30.04630722 25.13477188 30.30745819 24.42970001 30.57652283 23.70326233 C31.41039796 21.44989258 32.2369008 19.19391374 33.0625 16.9375 C33.89261617 14.67788589 34.72430325 12.41888238 35.55918884 10.161026 C36.07860528 8.7554262 36.59508902 7.34873865 37.1084137 5.94090271 C38.88826809 1.11173191 38.88826809 1.11173191 40 0 C43.00003445 -0.14177857 45.99757235 -0.04228771 49 0 C46.59824349 7.68889969 43.52586533 14.99309375 40.3125 22.375 C39.23155797 24.86523054 38.15245722 27.35625402 37.07421875 29.84765625 C36.67583801 30.76689125 36.67583801 30.76689125 36.26940918 31.70469666 C34.6787727 35.38728148 33.13872207 39.08591281 31.64453125 42.80859375 C31.29801514 43.66469238 30.95149902 44.52079102 30.59448242 45.40283203 C29.97297258 46.94760718 29.36150972 48.49648526 28.76293945 50.05029297 C26.48181158 55.67799353 23.35608246 61.04360301 17.97924805 64.17797852 C15.38712216 65.25454048 13.23601129 65.26522999 10.4375 65.25 C9.01244141 65.25773438 9.01244141 65.25773438 7.55859375 65.265625 C5 65 5 65 2 63 C2.33 60.69 2.66 58.38 3 56 C3.66386719 56.13019531 4.32773438 56.26039063 5.01171875 56.39453125 C10.83335522 57.36957286 10.83335522 57.36957286 16.0625 55 C18.36240053 51.4388637 18.75105909 49.21958986 19 45 C18.07561557 41.58307388 18.07561557 41.58307388 16.46484375 38.2109375 C16.05124352 37.27322006 16.05124352 37.27322006 15.62928772 36.31655884 C14.74782182 34.3285311 13.8432336 32.35207045 12.9375 30.375 C12.35587554 29.07230389 11.77578486 27.76892184 11.19726562 26.46484375 C8.92206736 21.35804726 6.60139209 16.27338612 4.22705078 11.21191406 C3.67903809 10.04112305 3.13102539 8.87033203 2.56640625 7.6640625 C2.07213135 6.61943848 1.57785645 5.57481445 1.06860352 4.49853516 C0 2 0 2 0 0 Z " fill="#09090A" transform="translate(1366,895)"/>
<path d="M0 0 C1.12619751 0.01160156 1.12619751 0.01160156 2.27514648 0.0234375 C7.94661467 0.2011143 11.87363968 1.26503127 16.625 4.5 C15.75 9.25 15.75 9.25 14.625 11.5 C12.01132586 11.05194158 9.78214657 10.5742081 7.375 9.4375 C2.61442046 7.81457516 -2.29243936 7.58570508 -6.9375 9.625 C-8.94335458 12.24133206 -8.47521656 14.28435554 -8.375 17.5 C-7.3128125 17.74234375 -6.250625 17.9846875 -5.15625 18.234375 C12.83257865 22.45253314 12.83257865 22.45253314 17.29296875 27.3203125 C19.65178388 31.1801918 19.3489339 35.13571275 18.625 39.5 C16.66157281 43.69737102 13.10601224 46.44404127 8.76953125 48.03125 C-0.57444796 50.07364983 -9.19056265 48.35673078 -17.4375 43.8125 C-18.076875 43.379375 -18.71625 42.94625 -19.375 42.5 C-18.88 39.53 -18.88 39.53 -18.375 36.5 C-16.89 36.005 -16.89 36.005 -15.375 35.5 C-13.68212215 36.45495674 -12.01642963 37.4590934 -10.375 38.5 C-6.87939 39.67820784 -3.48025438 39.66663678 0.1875 39.6875 C1.32316406 39.70167969 2.45882813 39.71585938 3.62890625 39.73046875 C6.8074443 39.73171839 6.8074443 39.73171839 9.625 37.5 C10.29185938 35.04327108 10.29185938 35.04327108 9.625 32.5 C5.85783847 29.68513209 2.33156781 28.86953766 -2.25 28.0625 C-13.69844927 25.75840958 -13.69844927 25.75840958 -17.8125 20.75 C-19.09768722 15.60925112 -19.0911801 11.9323602 -16.75 7.25 C-11.71858437 1.42415033 -7.41657029 -0.18379375 0 0 Z " fill="#0A0B0B" transform="translate(1209.375,894.5)"/>
<path d="M0 0 C3.24887354 0.98915835 6.09968982 2.2393781 9 4 C8.67 5.98 8.34 7.96 8 10 C4.31309766 11.22896745 3.39751488 10.2639559 0.03515625 8.71484375 C-4.50207018 7.12115385 -9.2107437 7.17083244 -13.5625 9.1875 C-15.4433581 11.55901674 -15.31898502 13.04938857 -15 16 C-9.60399726 18.89983659 -4.24028995 20.39992444 1.66015625 21.9375 C6.41060945 23.44875529 9.21479353 24.8221903 12 29 C12.7357576 33.49154347 12.3727706 37.14100689 10.5625 41.3125 C5.40596379 46.72057456 -0.05438176 48.23880478 -7.4375 48.5 C-14.89052079 48.27282703 -20.8346101 46.11025993 -27 42 C-26.38722388 39.03824877 -25.74627478 37.61941217 -24 35 C-21.19009577 36.10693197 -18.50748918 37.25108395 -15.8125 38.625 C-11.3278146 40.53859662 -6.79243791 40.76905676 -2 40 C1.08691577 38.20482277 1.08691577 38.20482277 3 36 C2.78942893 34.05448253 2.78942893 34.05448253 2 32 C-2.45455179 28.85747772 -8.00963141 27.71551064 -13.25 26.5625 C-18.3747273 25.37434666 -20.86480187 24.21630094 -24 20 C-25.60937584 16.78124833 -25.4623984 13.4907823 -25 10 C-19.63613196 -0.72773608 -10.86415019 -1.1843518 0 0 Z " fill="#0A0A0A" transform="translate(882,895)"/>
<path d="M0 0 C0.95003906 0.00644531 1.90007813 0.01289062 2.87890625 0.01953125 C5.4375 0.1875 5.4375 0.1875 8.4375 1.1875 C8.4375 3.8275 8.4375 6.4675 8.4375 9.1875 C7.921875 9.0225 7.40625 8.8575 6.875 8.6875 C3.01897631 7.89652078 -0.86146965 7.28028381 -4.4375 9.1875 C-6.23493534 12.3829406 -6.26452714 15.55223107 -6.5625 19.1875 C-1.9425 19.1875 2.6775 19.1875 7.4375 19.1875 C7.4375 21.8275 7.4375 24.4675 7.4375 27.1875 C3.1475 27.1875 -1.1425 27.1875 -5.5625 27.1875 C-5.5625 40.0575 -5.5625 52.9275 -5.5625 66.1875 C-8.5325 66.1875 -11.5025 66.1875 -14.5625 66.1875 C-14.5625 52.9875 -14.5625 39.7875 -14.5625 26.1875 C-17.2025 26.1875 -19.8425 26.1875 -22.5625 26.1875 C-22.5625 24.2075 -22.5625 22.2275 -22.5625 20.1875 C-19.0975 19.6925 -19.0975 19.6925 -15.5625 19.1875 C-15.54123047 18.10082031 -15.54123047 18.10082031 -15.51953125 16.9921875 C-15.18938243 10.29998162 -14.58470387 6.74252211 -9.5625 2.1875 C-6.31563348 0.15298278 -3.80129842 -0.05689018 0 0 Z " fill="#0B0B0C" transform="translate(633.5625,875.8125)"/>
<path d="M0 0 C4.23301121 2.82200747 7.17159664 5.95228992 8.8125 10.875 C9.60283165 17.23152454 9.09054116 21.98985929 5.2890625 27.24609375 C1.84990802 31.04008163 -1.73462776 32.03826379 -6.6875 32.3125 C-11.23737169 32.11368208 -13.81951834 31.08633135 -17.1875 27.875 C-20.73103857 22.35546952 -22.5247805 16.3884783 -21.1875 9.875 C-19.44903766 5.79246343 -17.22453494 2.77189508 -13.875 -0.125 C-8.92631595 -1.96637081 -4.86000961 -1.71529751 0 0 Z " fill="#F8F8F8" transform="translate(714.1875,903.125)"/>
<path d="M0 0 C3.90846769 1.74793277 6.3757007 4.17431383 8.9375 7.5625 C10.70140501 13.26925151 11.40550773 19.57632733 9.0859375 25.2265625 C6.47191384 29.18975966 3.56286121 31.50829538 -1 33 C-5.06918486 33.72903129 -8.43688337 33.94142251 -12.0625 31.7578125 C-15.877262 28.56294932 -18.77941995 25.80705965 -19.40625 20.671875 C-19.6905265 8.77964137 -19.6905265 8.77964137 -16.25 4.6875 C-11.47198621 0.09047158 -6.46676134 -1.05780076 0 0 Z " fill="#F9F9F9" transform="translate(1303,902)"/>
<path d="M0 0 C4.22925404 1.84164049 6.51975265 4.22540751 8.9375 8.125 C10.62240976 12.93752349 10.68809872 17.9867093 10 23 C7.9976035 27.004793 5.82001123 29.6587028 2 32 C-2.10134235 33.36711412 -5.72083177 33.75222526 -10 33 C-14.72096196 30.35057125 -17.38599154 27.16785808 -19 22 C-19.64009663 16.46986283 -19.73882473 11.5913148 -17.375 6.5 C-12.13121349 0.98022472 -7.59305554 -1.50540579 0 0 Z " fill="#FAFAFA" transform="translate(1136,902)"/>
<path d="M0 0 C3.3 0 6.6 0 10 0 C10 3.96 10 7.92 10 12 C14.29 12 18.58 12 23 12 C23 14.31 23 16.62 23 19 C18.71 19 14.42 19 10 19 C10.11797018 23.39675988 10.24219726 27.79328399 10.37231445 32.18969727 C10.41571813 33.68639269 10.45738913 35.18313939 10.49731445 36.67993164 C10.55488616 38.82714312 10.61861716 40.97409521 10.68359375 43.12109375 C10.72025146 44.4145874 10.75690918 45.70808105 10.79467773 47.04077148 C10.6667278 49.88555008 10.6667278 49.88555008 12 51 C13.85287502 51.07226502 15.70833878 51.0838122 17.5625 51.0625 C18.57441406 51.05347656 19.58632813 51.04445313 20.62890625 51.03515625 C21.41136719 51.02355469 22.19382812 51.01195312 23 51 C23.33 53.31 23.66 55.62 24 58 C19.44067639 60.35319928 15.02079467 60.71725638 10 60 C5.49728177 57.74864089 3.16246008 55.5085363 1 51 C0.65942383 47.49487305 0.65942383 47.49487305 0.70703125 43.51171875 C0.71127609 42.80852005 0.71552094 42.10532135 0.71989441 41.3808136 C0.7365994 39.14930869 0.77423386 36.91872887 0.8125 34.6875 C0.82755752 33.1686329 0.84124406 31.64975154 0.85351562 30.13085938 C0.88647527 26.42027566 0.93819984 22.71022822 1 19 C-1.97 19 -4.94 19 -8 19 C-8 16.69 -8 14.38 -8 12 C-5.36 12 -2.72 12 0 12 C0 8.04 0 4.08 0 0 Z " fill="#0D0D0E" transform="translate(908,883)"/>
<path d="M0 0 C2.97 0 5.94 0 9 0 C9 3.96 9 7.92 9 12 C13.29 12 17.58 12 22 12 C22 14.31 22 16.62 22 19 C17.71 19 13.42 19 9 19 C9.09697686 23.07558002 9.19972884 27.15036748 9.31738281 31.2253418 C9.3556435 32.61131907 9.39050156 33.99739465 9.421875 35.38354492 C9.46758699 37.3770164 9.52658925 39.37016914 9.5859375 41.36328125 C9.63306885 43.16212769 9.63306885 43.16212769 9.68115234 44.99731445 C9.78429494 48.17882706 9.78429494 48.17882706 12 51 C14.66653905 51.36460453 14.66653905 51.36460453 17.625 51.1875 C18.62789062 51.16042969 19.63078125 51.13335938 20.6640625 51.10546875 C21.82035156 51.05326172 21.82035156 51.05326172 23 51 C23.33 53.31 23.66 55.62 24 58 C19.39593285 60.37629272 15.06149528 60.55443941 10 60 C5.53548829 58.56798681 3.08328058 56.62771676 0.8137207 52.48999023 C-1.09619857 46.64562579 -0.39563817 40.15388511 -0.25 34.0625 C-0.22990977 32.60093585 -0.21166344 31.13934514 -0.1953125 29.67773438 C-0.15150336 26.11793226 -0.08261546 22.55913746 0 19 C-2.64 19 -5.28 19 -8 19 C-8 16.69 -8 14.38 -8 12 C-5.36 12 -2.72 12 0 12 C0 8.04 0 4.08 0 0 Z " fill="#0B0B0C" transform="translate(1243,883)"/>
<path d="M0 0 C2.97 0 5.94 0 9 0 C9 3.96 9 7.92 9 12 C13.29 12 17.58 12 22 12 C22 14.31 22 16.62 22 19 C17.71 19 13.42 19 9 19 C9.09686089 23.23638958 9.19953562 27.47178245 9.31738281 31.70751953 C9.35569674 33.1488374 9.39054543 34.59025168 9.421875 36.03173828 C9.46747446 38.10223886 9.52547444 40.17207433 9.5859375 42.2421875 C9.63306885 44.11173096 9.63306885 44.11173096 9.68115234 46.01904297 C9.69682309 49.11541776 9.69682309 49.11541776 12 51 C14.44012949 51.24287489 14.44012949 51.24287489 17.125 51.125 C18.03507812 51.10695313 18.94515625 51.08890625 19.8828125 51.0703125 C20.58148437 51.04710937 21.28015625 51.02390625 22 51 C22.33 53.31 22.66 55.62 23 58 C19.23851839 60.5076544 15.35352686 60.49638344 11 60 C6.38819894 58.77018638 4.54419177 57.78519099 1.8125 53.84375 C-1.18979923 47.47645766 -0.42103222 40.37033215 -0.25 33.5 C-0.22990166 32.09117126 -0.21165678 30.68231479 -0.1953125 29.2734375 C-0.14839203 25.84824336 -0.08274777 22.42448476 0 19 C-2.31 19 -4.62 19 -7 19 C-7 16.69 -7 14.38 -7 12 C-4.69 12 -2.38 12 0 12 C0 8.04 0 4.08 0 0 Z " fill="#0C0C0C" transform="translate(1077,883)"/>
<path d="M0 0 C0 3.3 0 6.6 0 10 C-1.381875 10.28875 -2.76375 10.5775 -4.1875 10.875 C-9.27292389 11.94527431 -9.27292389 11.94527431 -14 14 C-16.02980211 17.95133013 -16.29771287 21.43013681 -16.4140625 25.83203125 C-16.47207031 27.77045898 -16.47207031 27.77045898 -16.53125 29.74804688 C-16.56270014 31.10285995 -16.59394761 32.45767775 -16.625 33.8125 C-16.6632175 35.18687272 -16.7022714 36.56122244 -16.7421875 37.93554688 C-16.83635404 41.29022989 -16.921982 44.64490893 -17 48 C-19.97 48 -22.94 48 -26 48 C-26 32.49 -26 16.98 -26 1 C-23.03 1 -20.06 1 -17 1 C-16.67 3.31 -16.34 5.62 -16 8 C-15.46890625 7.50628906 -14.9378125 7.01257813 -14.390625 6.50390625 C-13.68421875 5.86324219 -12.9778125 5.22257813 -12.25 4.5625 C-11.55390625 3.92441406 -10.8578125 3.28632812 -10.140625 2.62890625 C-6.66981816 -0.01220041 -4.35296967 0 0 0 Z " fill="#0E0E0E" transform="translate(1361,894)"/>
<path d="M0 0 C2.97 0 5.94 0 9 0 C9.33 2.31 9.66 4.62 10 7 C10.48210938 6.57847656 10.96421875 6.15695312 11.4609375 5.72265625 C12.09257813 5.17480469 12.72421875 4.62695312 13.375 4.0625 C14.31472656 3.24458984 14.31472656 3.24458984 15.2734375 2.41015625 C18.77577411 -0.45034945 21.57076024 -0.08202296 26 0 C26 2.97 26 5.94 26 9 C25.33613281 9.08636719 24.67226563 9.17273438 23.98828125 9.26171875 C18.14110314 10.19214563 14.7860503 11.1147738 11 16 C9.57732138 18.84535725 9.78028131 21.36218552 9.68359375 24.5390625 C9.64169922 25.84101562 9.59980469 27.14296875 9.55664062 28.484375 C9.51682701 29.86458045 9.47711478 31.24478883 9.4375 32.625 C9.39430593 34.01303415 9.35069135 35.40105528 9.30664062 36.7890625 C9.20028 40.19260256 9.09825286 43.59621778 9 47 C6.03 47 3.06 47 0 47 C0 31.49 0 15.98 0 0 Z " fill="#0C0C0C" transform="translate(651,895)"/>
<path d="M0 0 C1 1 1 1 1.375 4.1875 C0.9008096 9.00843572 -0.53512963 10.68912387 -4 14 C-7.97849369 16.36559084 -12.47257334 16.87627613 -17 16 C-20 13.9375 -20 13.9375 -22 11 C-22.3125 7.1875 -22.3125 7.1875 -22 4 C-15.33597377 -1.2011912 -8.11857312 -0.61749746 0 0 Z " fill="#F1F1F1" transform="translate(972,920)"/>
<path d="M0 0 C0.33 0 0.66 0 1 0 C1.84647881 9.88552398 2.13638986 19.66491834 2.09765625 29.5859375 C2.09578467 31.02324371 2.09436428 32.46055058 2.09336853 33.89785767 C2.08960152 37.62953542 2.07982305 41.36117249 2.06866455 45.09283447 C2.05832327 48.92125906 2.05384404 52.74969039 2.04882812 56.578125 C2.03819379 64.05210162 2.02118996 71.52604505 2 79 C1.67 79 1.34 79 1 79 C0.67 85.27 0.34 91.54 0 98 C-0.33 98 -0.66 98 -1 98 C-1.74667305 68.32768968 -2.15147305 38.68172593 -2 9 C-1.67 9 -1.34 9 -1 9 C-0.67 6.03 -0.34 3.06 0 0 Z " fill="#373737" transform="translate(1138,1122)"/>
</svg>
